<?xml version="1.0" standalone="no"?>
<!DOCTYPE svg PUBLIC "-//W3C//DTD SVG 20010904//EN"
 "http://www.w3.org/TR/2001/REC-SVG-20010904/DTD/svg10.dtd">
<svg version="1.0" xmlns="http://www.w3.org/2000/svg"
 width="90.000000pt" height="90.000000pt" viewBox="0 0 90.000000 90.000000"
 preserveAspectRatio="xMidYMid meet">
<metadata>
Created by potrace 1.11, written by Peter Selinger 2001-2013
</metadata>
<g transform="translate(0.000000,90.000000) scale(0.100000,-0.100000)"
fill="#000000" stroke="none">
<path d="M414 882 c-21 -13 -34 -52 -28 -77 6 -24 33 -46 63 -51 22 -4 71 24
72 41 1 8 2 21 3 28 3 15 -14 50 -28 59 -6 4 -24 8 -41 8 -16 0 -35 -4 -41 -8z"/>
<path d="M280 350 c-94 -188 -170 -343 -170 -345 0 -3 155 -5 345 -5 190 0
345 4 345 9 0 4 -17 42 -39 82 -21 41 -98 192 -170 337 -73 144 -135 262 -137
262 -2 0 -81 -153 -174 -340z m261 -7 c45 -93 92 -191 104 -219 l23 -51 -213
-1 -214 0 9 21 c19 49 199 417 204 417 3 0 42 -75 87 -167z"/>
</g>
</svg>
